<svg width="52" height="51" viewBox="0 0 52 51" xmlns="http://www.w3.org/2000/svg">
<path fill-rule="evenodd" clip-rule="evenodd" d="M49.5928 1.5L29.5464 21.5464L30.2535 22.2535L50.5 2.00701V17H51.5V1V0.5H51H50.7L50.6464 0.446411L50.5928 0.5H35V1.5H49.5928ZM1.5 49.4929V34H0.5V50V50.5H1H17V49.5H2.90707L23.2535 29.1535L22.5464 28.4464L1.5 49.4929Z" fill="currentColor"/>
<path fill-rule="evenodd" clip-rule="evenodd" d="M2.4072 1.5L22.4536 21.5464L21.7465 22.2535L1.5 2.00701V17H0.5V1V0.5H1H1.30003L1.35361 0.446411L1.4072 0.5H17V1.5H2.4072ZM50.5 49.4929V34H51.5V50V50.5H51H35V49.5H49.0929L28.7465 29.1535L29.4536 28.4464L50.5 49.4929Z" fill="currentColor"/>
</svg>
