<svg width="20" height="20" viewBox="0 0 20 20" xmlns="http://www.w3.org/2000/svg">
<path d="M9.62931 4.8204L10.0751 5.51378L10.484 4.79809C11.2027 3.54038 12.5444 2.65002 14.1499 2.65002C16.4738 2.65002 18.3499 4.52617 18.3499 6.85002C18.3499 8.00527 17.9109 8.98702 17.1857 9.80709L17.1856 9.80719L17.1851 9.80773L17.1845 9.80827L17.184 9.80881L17.1835 9.80934L17.1829 9.80987L17.1824 9.8104L17.1819 9.81093L17.1814 9.81146L17.1808 9.81198L17.1803 9.8125L17.1798 9.81302L17.1793 9.81354L17.1788 9.81405L17.1783 9.81456L17.1777 9.81507L17.1772 9.81558L17.1767 9.81608L17.1762 9.81658L17.1757 9.81708L17.1752 9.81758L17.1747 9.81808L17.1742 9.81857L17.1738 9.81906L17.1733 9.81955L17.1728 9.82004L17.1723 9.82052L17.1718 9.821L17.1713 9.82148L17.1709 9.82196L17.1704 9.82243L17.1699 9.82291L17.1694 9.82338L17.169 9.82385L17.1685 9.82431L17.168 9.82477L17.1676 9.82524L17.1671 9.82569L17.1667 9.82615L17.1662 9.82661L17.1658 9.82706L17.1653 9.82751L17.1649 9.82795L17.1644 9.8284L17.164 9.82884L17.1635 9.82928L17.1631 9.82972L17.1627 9.83016L17.1622 9.83059L17.1618 9.83102L17.1614 9.83145L17.1609 9.83188L17.1605 9.8323L17.1601 9.83273L17.1597 9.83315L17.1593 9.83356L17.1588 9.83398L17.1584 9.83439L17.158 9.8348L17.1576 9.83521L17.1572 9.83562L17.1568 9.83602L17.1564 9.83642L17.156 9.83682L17.1556 9.83722L17.1552 9.83762L17.1548 9.83801L17.1544 9.8384L17.154 9.83879L17.1536 9.83917L17.1533 9.83955L17.1529 9.83994L17.1525 9.84031L17.1521 9.84069L17.1518 9.84107L17.1514 9.84144L17.151 9.84181L17.1506 9.84217L17.1503 9.84254L17.1499 9.8429L17.1496 9.84326L17.1492 9.84362L17.1488 9.84398L17.1485 9.84433L17.1481 9.84468L17.1478 9.84503L17.1474 9.84538L17.1471 9.84572L17.1468 9.84606L17.1464 9.8464L17.1461 9.84674L17.1457 9.84708L17.1454 9.84741L17.1451 9.84774L17.1448 9.84807L17.1444 9.8484L17.1441 9.84872L17.1438 9.84904L17.1435 9.84936L17.1431 9.84968L17.1428 9.84999L17.1425 9.8503L17.1422 9.85061L17.1419 9.85092L17.1416 9.85123L17.1413 9.85153L17.141 9.85183L17.1407 9.85213L17.1404 9.85243L17.1401 9.85272L17.1398 9.85301L17.1395 9.8533L17.1392 9.85359L17.1389 9.85387L17.1387 9.85416L17.1384 9.85444L17.1381 9.85472L17.1378 9.85499L17.1376 9.85527L17.1373 9.85554L17.137 9.85581L17.1367 9.85607L17.1365 9.85634L17.1362 9.8566L17.136 9.85686L17.1357 9.85712L17.1354 9.85737L17.1352 9.85762L17.1349 9.85787L17.1347 9.85812L17.1345 9.85837L17.1342 9.85861L17.134 9.85885L17.1337 9.85909L17.1335 9.85933L17.1333 9.85956L17.133 9.8598L17.1328 9.86003L17.1326 9.86025L17.1323 9.86048L17.1321 9.8607L17.1319 9.86092L17.1317 9.86114L17.1315 9.86136L17.1312 9.86157L17.131 9.86178L17.1308 9.86199L17.1306 9.8622L17.1304 9.86241L17.1302 9.86261L17.13 9.86281L17.1298 9.86301L17.1296 9.8632L17.1294 9.8634L17.1292 9.86359L17.129 9.86378L17.1289 9.86396L17.1287 9.86415L17.1285 9.86433L17.1283 9.86451L17.1281 9.86469L17.128 9.86486L17.1278 9.86503L17.1276 9.8652L17.1274 9.86537L17.1273 9.86554L17.1271 9.8657L17.127 9.86586L17.1268 9.86602L17.1266 9.86618L17.1265 9.86633L17.1263 9.86649L17.1262 9.86664L17.126 9.86678L17.1259 9.86693L17.1257 9.86707L17.1256 9.86721L17.1255 9.86735L17.1253 9.86749L17.1252 9.86762L17.1251 9.86775L17.1249 9.86788L17.1248 9.86801L17.1247 9.86813L17.1246 9.86826L17.1244 9.86838L17.1243 9.86849L17.1242 9.86861L17.1241 9.86872L17.124 9.86883L17.1239 9.86894L17.1238 9.86905L17.1237 9.86915L17.1236 9.86926L17.1235 9.86936L17.1234 9.86945L17.1233 9.86955L17.1232 9.86964L17.1231 9.86973L17.123 9.86982L17.1229 9.8699L17.1228 9.86999L17.1228 9.87007L17.1227 9.87015L17.1226 9.87022L17.1225 9.8703L17.1224 9.87037L17.1224 9.87044L17.1223 9.87051L17.1222 9.87057L17.1222 9.87064L17.1221 9.8707L17.1221 9.87076L17.122 9.87081L17.122 9.87087L17.1219 9.87092L17.1219 9.87097L17.1218 9.87101L17.1218 9.87106L17.1217 9.8711L17.1217 9.87114L17.1216 9.87118L17.1216 9.87121L17.1216 9.87125L17.1215 9.87128L17.1215 9.87131L17.1215 9.87133L17.1215 9.87136L17.1214 9.87138L17.1214 9.8714L17.1214 9.87142L17.1214 9.87143L17.1214 9.87144L17.1214 9.87145L17.1214 9.87146L17.1214 9.87147L17.1223 9.87242L10.0476 17.1358L3.00582 9.99885L3.00583 9.99884L3.00346 9.99647L2.91595 9.90897L2.90501 9.89802L2.90363 9.89664L2.90346 9.89647L2.90343 9.89645L2.90335 9.89637L2.90324 9.89626L2.90303 9.89604L2.90259 9.89561L2.90172 9.89474L2.80346 9.79647C2.09945 9.09246 1.6499 8.02059 1.6499 6.95002C1.6499 4.52617 3.52604 2.65002 5.9499 2.65002C7.44637 2.65002 8.80166 3.53295 9.62931 4.8204Z" stroke="currentColor" fill="none"/>
</svg>
