<svg width="13" height="18" viewBox="0 0 13 18" xmlns="http://www.w3.org/2000/svg">
<path d="M1 7.08726V6.58726H0.5V7.08726H1ZM11.924 7.08726H12.424V6.58726H11.924V7.08726ZM11.924 16.9502V17.4502H12.424V16.9502H11.924ZM1 16.9502H0.5V17.4502H1V16.9502ZM1 7.58726H11.924V6.58726H1V7.58726ZM11.424 7.08726V16.9502H12.424V7.08726H11.424ZM11.924 16.4502H1V17.4502H11.924V16.4502ZM1.5 16.9502V7.08726H0.5V16.9502H1.5ZM3.6373 7.16432V4.77564H2.6373V7.16432H3.6373ZM3.6373 4.77564C3.6373 3.80993 3.87698 2.98827 4.33002 2.419C4.7699 1.86625 5.45062 1.5 6.46198 1.5V0.5C5.17773 0.5 4.19611 0.981343 3.54755 1.7963C2.91215 2.59474 2.6373 3.66091 2.6373 4.77564H3.6373ZM6.46198 1.5C7.47334 1.5 8.15407 1.86625 8.59395 2.419C9.04698 2.98827 9.28667 3.80993 9.28667 4.77564H10.2867C10.2867 3.66091 10.0118 2.59474 9.37641 1.7963C8.72786 0.981343 7.74624 0.5 6.46198 0.5V1.5ZM9.28667 4.77564V7.16432H10.2867V4.77564H9.28667Z" fill="currentColor"/>
<path d="M12.0001 7.13721H1.07617V17.0001H12.0001V7.13721Z" fill="currentColor"/>
</svg>
