<svg width="17" height="25" viewBox="0 0 17 25" xmlns="http://www.w3.org/2000/svg">
<path d="M1.90723 9.93939V9.43939H1.40723V9.93939H1.90723ZM15.2363 9.93939H15.7363V9.43939H15.2363V9.93939ZM15.2363 21.9856V22.4856H15.7363V21.9856H15.2363ZM1.90723 21.9856H1.40723V22.4856H1.90723V21.9856ZM1.90723 10.4394H15.2363V9.43939H1.90723V10.4394ZM14.7363 9.93939V21.9856H15.7363V9.93939H14.7363ZM15.2363 21.4856H1.90723V22.4856H15.2363V21.4856ZM2.40723 21.9856V9.93939H1.40723V21.9856H2.40723ZM5.01509 10.0335V7.11607H4.01509V10.0335H5.01509ZM5.01509 7.11607C5.01509 5.91998 5.31146 4.8893 5.88441 4.16864C6.44418 3.46456 7.30787 3.00464 8.57175 3.00464V2.00464C7.03461 2.00464 5.86996 2.57994 5.10165 3.54632C4.34653 4.49612 4.01509 5.77116 4.01509 7.11607H5.01509ZM8.57175 3.00464C9.83564 3.00464 10.6993 3.46456 11.2591 4.16864C11.832 4.8893 12.1284 5.91998 12.1284 7.11607H13.1284C13.1284 5.77116 12.797 4.49612 12.0419 3.54632C11.2735 2.57994 10.1089 2.00464 8.57175 2.00464V3.00464ZM12.1284 7.11607V10.0335H13.1284V7.11607H12.1284Z" fill="currentColor"/>
</svg>
