<svg width="169" height="62" viewBox="0 0 169 62" fill="none" xmlns="http://www.w3.org/2000/svg">
<g clip-path="url(#clip0_1510_725)">
<path d="M147.1 24.1V1.6H133.7V24.1H111.8V37.4H133.7V60.9H147.1V37.4H169V24.1H147.1Z" fill="white"/>
<path d="M118.3 1.6H101L73.9 30H73.2V25.9V1.6H59.8V18.1H59.1C54.3 6.8 43.8 -0.199997 31.3 -0.199997C13.5 -0.199997 0 13.1 0 30.9C0 48.9 13.5 62.2 31.3 62.2C43.8 62.2 54.3 55.2 59.1 44H59.8V60.7H73.2V32.7H74L104.1 60.7H121.7L90 31.2L118.3 1.6ZM59.8 42.2H45.8C42.8 47.1 37.4 49.8 31.4 49.8C20.9 49.8 13.5 41.6 13.5 30.9C13.5 20.1 20.8 12.2 31.4 12.2C37.5 12.2 42.8 14.9 45.8 19.8H55.4H59.9L59.8 42.2Z" fill="white"/>
</g>
<defs>
<clipPath id="clip0_1510_725">
<rect width="169" height="62" fill="white"/>
</clipPath>
</defs>
</svg>
