<svg width="67" height="75" viewBox="0 0 67 75" fill="none" xmlns="http://www.w3.org/2000/svg">
<path d="M65.3976 43.3843C70.1046 28.6237 63.9955 12.1676 49.8744 4.28856C44.9671 1.49601 39.2586 0 33.4499 0C15.0224 0 0 14.8604 0 33.2114C0 36.7021 0.500747 40.0931 1.60239 43.3843L33.6502 75L65.3976 43.3843Z" fill="black"/>
<path d="M36.7542 44.1823H46.5689C47.7707 44.1823 48.672 43.2847 48.672 42.0879V32.3139C48.672 32.0147 48.2714 32.0147 48.1713 32.2142C46.5689 37.6996 42.1623 42.0879 36.6541 43.6836C36.3536 43.7834 36.4538 44.1823 36.7542 44.1823Z" fill="white"/>
<path d="M48.6722 27.028V17.2541C48.6722 16.0573 47.7708 15.1597 46.569 15.1597H36.7544C36.4539 15.1597 36.4539 15.5586 36.6542 15.6583C42.1625 17.2541 46.569 21.6424 48.1714 27.1278C48.2716 27.427 48.6722 27.3272 48.6722 27.028Z" fill="white"/>
<path d="M31.3465 44.1823H21.5319C20.3301 44.1823 19.4287 43.2847 19.4287 42.0879V32.3139C19.4287 32.0147 19.8293 32.0147 19.9295 32.2142C21.5319 37.6996 25.9384 42.0879 31.4466 43.6836C31.7471 43.7834 31.6469 44.1823 31.3465 44.1823Z" fill="white"/>
<path d="M19.4287 27.028V17.2541C19.4287 16.0573 20.3301 15.1597 21.5319 15.1597H31.3465C31.6469 15.1597 31.6469 15.5586 31.4466 15.6583C25.9384 17.2541 21.5318 21.6424 19.9295 27.1278C19.8293 27.427 19.4287 27.3272 19.4287 27.028Z" fill="white"/>
</svg>
