<svg width="22" height="17" viewBox="0 0 22 17" fill="none" xmlns="http://www.w3.org/2000/svg">
<path d="M2.29998 6.60005L3.99998 1.80005C4.19998 1.20005 4.69998 0.800049 5.39997 0.800049H16C16.6 0.800049 17.2 1.20005 17.4 1.80005L19 6.60005H21.2V8.50005H19.3V16.1H16.4V14.2H4.89997V16.1H1.99998V8.50005H0.0999756V6.60005H2.29998ZM4.59998 6.60005H16.6L15.4 2.80005H5.89997L4.59998 6.60005ZM5.29998 11.4C6.09998 11.4 6.69998 10.8 6.69998 10C6.69998 9.20005 6.09998 8.60005 5.29998 8.60005C4.49998 8.60005 3.89997 9.20005 3.89997 10C3.89997 10.7 4.49998 11.4 5.29998 11.4ZM15.8 11.4C16.6 11.4 17.2 10.8 17.2 10C17.2 9.20005 16.6 8.60005 15.8 8.60005C15 8.60005 14.4 9.20005 14.4 10C14.4 10.7 15 11.4 15.8 11.4Z" fill="white"/>
</svg>
