<svg width="14" height="29" viewBox="0 0 14 29" fill="none" xmlns="http://www.w3.org/2000/svg">
<path d="M6.82104 22.3171L3.21485 27.463C2.76239 28.1045 1.87773 28.2599 1.23617 27.8074C0.614884 27.3752 0.452808 26.5311 0.844491 25.8963L4.05224 20.7571L4.10627 19.5618C4.12653 19.0553 4.15354 18.5488 4.16705 18.0356C4.16705 18.0086 4.1738 17.9748 4.1738 17.9478L6.72649 22.0672L6.82104 22.3171ZM9.52906 13.7676L10.569 15.3478C10.8122 15.7125 11.2106 15.9151 11.6158 15.9151C11.8521 15.9151 12.0885 15.8476 12.3046 15.7125C12.8854 15.3343 13.0475 14.5577 12.6625 13.9769L10.0626 10.0128C9.83295 11.1203 9.6236 12.525 9.52906 13.7676ZM13.3446 26.1461L11.2376 20.0278C11.2106 19.9602 11.1836 19.886 11.1431 19.8252L11.089 19.7306L8.19868 14.6928C8.19868 14.5442 8.19868 14.3956 8.20544 14.2471C8.21894 13.9364 8.24596 13.619 8.27297 13.3016C8.33375 12.6601 8.41479 12.0118 8.50933 11.3702C8.61063 10.7287 8.72543 10.0871 8.86725 9.45907C8.93478 9.14843 9.00906 8.84453 9.0901 8.55415L9.15088 8.33805L9.20491 8.16922C9.22516 8.08143 9.3062 7.89234 9.36023 7.73702L9.37373 7.70325V7.6965C9.74516 6.69703 9.23192 5.58951 8.23245 5.22484C7.36129 4.90069 6.4091 5.25185 5.93638 6.00821L2.73538 9.46583C2.62057 9.58738 2.53278 9.73595 2.472 9.89803L0.966048 14.1188C0.736441 14.7738 1.0741 15.4896 1.72916 15.7193C1.87097 15.7665 2.01279 15.7935 2.14785 15.7935C2.66109 15.7935 3.14732 15.4761 3.32965 14.9629L4.61276 11.3567C4.53847 11.8902 4.47094 12.417 4.42367 12.9572C4.3899 13.3286 4.36289 13.7001 4.34938 14.0715C4.33588 14.4497 4.32912 14.8346 4.33588 15.2398L4.34263 15.3411C4.35614 15.6382 4.45068 15.9421 4.62626 16.2122L8.11765 21.4459L10.4948 27.2266C10.7987 27.9695 11.636 28.3544 12.3991 28.091C13.196 27.8074 13.6215 26.9362 13.3446 26.1461ZM7.43558 0.30179C6.28754 0.727239 5.69326 1.99683 6.11871 3.15162C6.54416 4.30641 7.82051 4.89394 8.96854 4.46849C10.1166 4.04304 10.7109 2.77345 10.2854 1.61866C9.85996 0.463866 8.58361 -0.123659 7.43558 0.30179Z" fill="white"/>
</svg>
