<svg width="76" height="58" viewBox="0 0 76 58" fill="none" xmlns="http://www.w3.org/2000/svg">
<path d="M45.2666 57.1001H0V29.3273H45.2666V39.7939H53.9C53.55 43.9391 50.8666 46.219 46.55 46.219H45.2666V57.1001ZM16.8 10.0521V9.0158H25.4333V0.51815V0H0V27.151H25.4333V19.7933C20.0667 19.2752 16.8 15.6481 16.8 10.0521ZM75.4833 27.151V12.4356H46.55V0H27.8833V0.51815V11.192H19.25C19.6 15.3372 22.2833 17.6171 26.6 17.6171H27.8833V27.151H47.7166V37.6177H56.35V38.7576C56.35 44.3536 53.0833 47.9807 47.7166 48.4988V57.1001H75.4833V29.3273H61.4833V27.151H75.4833Z" fill="white"/>
</svg>
