<svg width="150" height="46" viewBox="0 0 150 46" fill="none" xmlns="http://www.w3.org/2000/svg">
<g clip-path="url(#clip0_1510_662)">
<path d="M89.3436 3.19678H80.5303V6.39378H89.3436V3.19678Z" fill="black"/>
<path d="M3.71544 11.7512C3.71544 16.5035 7.08525 20.0461 11.5783 20.0461C14.1705 20.0461 16.1578 18.9228 17.4539 17.1083H21.6014C19.7869 20.9101 16.3306 23.4159 11.5783 23.4159C5.01152 23.4159 0 18.4044 0 11.7512C0 5.01152 5.01152 0 11.5783 0C16.3306 0 19.7869 2.59217 21.6014 6.39401H17.4539C16.1578 4.6659 14.0841 3.45622 11.5783 3.45622C7.08525 3.45622 3.71544 6.99885 3.71544 11.7512Z" fill="black"/>
<path d="M21.6016 6.39404H35.8585V9.67745H30.5877V22.8975H26.8723V9.67745H21.6016V6.39404Z" fill="black"/>
<path d="M37.8457 28.773V6.39394H41.5611V7.94924C42.7708 6.73956 44.6717 5.96191 46.7455 5.96191C52.1026 5.96191 55.2132 10.1094 55.2132 14.6889C55.2132 19.2684 52.189 23.4158 46.7455 23.4158C44.5853 23.4158 42.6844 22.6382 41.5611 21.4285V28.773H37.8457ZM46.4863 19.8732C49.424 19.8732 51.4114 17.4538 51.4114 14.6025C51.4114 11.7511 49.424 9.33173 46.4863 9.33173C43.8941 9.33173 41.3883 11.0598 41.3883 14.6025C41.3883 18.1451 43.9805 19.8732 46.4863 19.8732Z" fill="black"/>
<path d="M74.4812 14.6889C74.4812 19.7004 70.6794 23.4158 65.6679 23.4158C60.5699 23.4158 56.8545 19.7004 56.8545 14.6889C56.8545 9.67735 60.6563 5.96191 65.6679 5.96191C70.6794 5.96191 74.4812 9.67735 74.4812 14.6889ZM70.7658 14.6889C70.7658 11.6647 68.692 9.41813 65.6679 9.41813C62.7301 9.41813 60.5699 11.6647 60.5699 14.6889C60.5699 17.6267 62.7301 19.9596 65.6679 19.9596C68.6056 19.8732 70.7658 17.6267 70.7658 14.6889Z" fill="black"/>
<path d="M76.8145 22.8975V6.39404H80.5299V17.6268L89.3433 6.39404H93.0587V22.8975H89.3433V11.6648L80.5299 22.8975H76.8145Z" fill="black"/>
<path d="M100.663 13.2201V22.9839H96.9473V6.39404H100.663V13.2201Z" fill="black"/>
<path d="M100.49 14.689L108.44 6.39404H113.278L105.329 14.689L114.402 22.9839H109.563L100.49 14.689Z" fill="black"/>
<path d="M130.645 14.6889C130.645 19.7004 126.843 23.4158 121.832 23.4158C116.734 23.4158 113.019 19.7004 113.019 14.6889C113.019 9.67735 116.82 5.96191 121.832 5.96191C126.843 5.96191 130.645 9.67735 130.645 14.6889ZM126.843 14.6889C126.843 11.6647 124.77 9.41813 121.746 9.41813C118.808 9.41813 116.648 11.6647 116.648 14.6889C116.648 17.6267 118.808 19.9596 121.746 19.9596C124.77 19.8732 126.843 17.6267 126.843 14.6889Z" fill="black"/>
<path d="M132.546 28.773V6.39394H136.261V7.94924C137.471 6.73956 139.372 5.96191 141.446 5.96191C146.803 5.96191 149.913 10.1094 149.913 14.6889C149.913 19.2684 146.889 23.4158 141.446 23.4158C139.286 23.4158 137.385 22.6382 136.261 21.4285V28.773H132.546ZM141.273 19.8732C144.211 19.8732 146.198 17.4538 146.198 14.6025C146.198 11.7511 144.211 9.33173 141.273 9.33173C138.681 9.33173 136.175 11.0598 136.175 14.6025C136.175 18.1451 138.681 19.8732 141.273 19.8732Z" fill="black"/>
<path d="M18.3175 28.7729V45.2764H14.6021V32.0564H6.04794V45.2764H2.24609V28.7729H18.3175Z" fill="black"/>
<path d="M65.7551 37.0678C65.7551 42.0793 62.0396 45.7947 57.1145 45.7947C52.7078 45.7947 49.2516 42.7705 48.5604 38.6231H45.277V45.2763H41.5615V28.7728H45.277V35.3397H48.5604C49.338 31.1922 52.7078 28.3408 57.1145 28.3408C62.0396 28.3408 65.7551 32.0563 65.7551 37.0678ZM62.0396 37.0678C62.0396 34.0436 60.0523 31.797 57.2009 31.797C54.2631 31.797 52.2758 34.0436 52.2758 37.0678C52.2758 40.0056 54.2631 42.3385 57.2009 42.3385C60.0523 42.3385 62.0396 40.0056 62.0396 37.0678Z" fill="black"/>
<path d="M79.6659 33.8708C78.8019 32.4883 77.333 31.7106 75.6049 31.7106C72.6671 31.7106 70.5934 33.9572 70.5934 36.9813C70.5934 39.9191 72.6671 42.2521 75.6049 42.2521C77.333 42.2521 78.8019 41.4744 79.6659 40.092H83.5542C82.3445 43.5482 79.2339 45.7083 75.6049 45.7083C70.6798 45.7083 66.8779 41.9929 66.8779 36.9813C66.8779 31.9698 70.6798 28.2544 75.6049 28.2544C79.3203 28.2544 82.3445 30.4145 83.5542 33.8708H79.6659Z" fill="black"/>
<path d="M25.1439 28.7729C25.1439 28.7729 24.1935 39.1416 23.9343 40.4377C23.5886 41.9066 22.811 42.425 21.7741 42.425C20.8237 42.425 20.5645 42.425 20.5645 42.425V45.4492C20.5645 45.4492 21.5149 45.5356 22.7246 45.5356C25.1439 45.5356 26.8721 43.9803 27.3905 41.3882C27.9089 38.796 28.5138 32.1428 28.5138 32.1428H34.1301V45.3628H37.8456V28.9458H25.1439V28.7729Z" fill="black"/>
</g>
<defs>
<clipPath id="clip0_1510_662">
<rect width="150" height="46" fill="white"/>
</clipPath>
</defs>
</svg>
