<svg width="107" height="40" viewBox="0 0 107 40" fill="none" xmlns="http://www.w3.org/2000/svg">
<g clip-path="url(#clip0_1510_1941)">
<rect width="107" height="40" fill="white"/>
<path d="M93.1743 15.5415V1.31494H84.6584V15.5415H70.7324V24.0574H84.6584V38.8851H93.1743V24.0574H107V15.5415H93.1743Z" fill="black"/>
<path d="M74.94 1.31495H63.9194L46.7874 19.3486H46.2865V16.7438V1.31495H37.7706V11.7344H37.3698C34.3642 4.62113 27.7518 0.212891 19.8371 0.212891C8.6161 0.212891 0 8.62861 0 19.9498C0 31.3711 8.6161 39.7868 19.8371 39.7868C27.7518 39.7868 34.3642 35.3786 37.47 28.2653H37.8708V38.8851H46.3867V21.0518H46.8876L65.9232 38.785H77.0439L57.0065 20.1501L74.94 1.31495ZM37.8708 27.0631H28.9541C27.0505 30.1689 23.6442 31.872 19.8371 31.872C13.2247 31.872 8.51591 26.6623 8.51591 19.9498C8.51591 13.137 13.1245 8.12768 19.8371 8.12768C23.6442 8.12768 27.0505 9.83086 28.9541 12.9367H34.9653H37.7706L37.8708 27.0631Z" fill="black"/>
</g>
<defs>
<clipPath id="clip0_1510_1941">
<rect width="107" height="40" fill="white"/>
</clipPath>
</defs>
</svg>
