<svg width="176" height="27" viewBox="0 0 176 27" fill="none" xmlns="http://www.w3.org/2000/svg">
<path d="M58.5145 26.4475V4.23961H45.2451V26.4475H40.9141V3.87101C40.9141 1.84374 42.5727 0.185059 44.6 0.185059H59.1595C61.1868 0.185059 62.8455 1.84374 62.8455 3.87101V26.4475H58.5145Z" fill="#221F20"/>
<path d="M84.869 17.2326C84.869 22.7615 80.6301 26.9082 75.009 26.9082C69.388 26.9082 65.1491 22.7615 65.1491 17.2326C65.1491 11.6115 69.388 7.46484 75.009 7.46484C80.6301 7.46484 84.869 11.6115 84.869 17.2326ZM80.7223 17.2326C80.7223 13.8231 78.4185 11.3351 75.1012 11.3351C71.7838 11.3351 69.388 13.8231 69.388 17.2326C69.388 20.55 71.7838 23.038 75.1012 23.038C78.4185 23.038 80.7223 20.55 80.7223 17.2326Z" fill="#221F20"/>
<path d="M135.827 17.2325C135.827 22.7614 131.681 26.9081 126.244 26.9081C121.268 26.9081 117.398 23.5907 116.66 18.8912H112.329V26.3552H108.183V7.92545H112.329V15.2052H116.753C117.582 10.5978 121.36 7.37256 126.244 7.37256C131.681 7.46471 135.827 11.6114 135.827 17.2325ZM131.588 17.2325C131.588 13.823 129.377 11.335 126.152 11.335C122.834 11.335 120.623 13.823 120.623 17.2325C120.623 20.5498 122.834 23.0379 126.152 23.0379C129.377 23.0379 131.588 20.5498 131.588 17.2325Z" fill="#221F20"/>
<path d="M151.401 13.731C150.479 12.1644 148.82 11.3351 146.885 11.3351C143.568 11.3351 141.356 13.8231 141.356 17.1405C141.356 20.4578 143.66 23.038 146.885 23.038C148.82 23.038 150.479 22.2087 151.401 20.6421H155.824C154.441 24.5124 151.032 26.9082 146.977 26.9082C141.448 26.9082 137.21 22.7615 137.21 17.1405C137.21 11.6115 141.448 7.46484 146.977 7.46484C151.124 7.46484 154.441 9.86071 155.824 13.731H151.401Z" fill="#221F20"/>
<path d="M175.083 14.8363V26.447H170.936V24.7883C169.554 26.2627 167.342 26.9999 164.762 26.9999C160.339 26.9999 157.39 24.8805 157.39 20.8259C157.39 16.3106 161.537 14.9284 165.776 14.9284H170.936C170.936 12.4404 168.725 11.4268 166.052 11.4268C163.841 11.4268 161.998 12.0718 161.353 13.8226H156.93C158.035 9.67593 161.813 7.55651 166.052 7.55651C171.397 7.46436 175.083 10.1367 175.083 14.8363ZM170.936 18.1536H165.684C163.011 18.1536 161.537 18.983 161.537 20.7338C161.537 22.3925 163.011 23.4061 165.407 23.4061C168.54 23.4061 170.936 21.8396 170.936 19.1673V18.1536Z" fill="#221F20"/>
<path d="M102.009 26.4473L95.5582 12.3486L88.8313 26.4473H83.9474L92.333 9.49196C92.7937 8.57047 93.7152 8.01758 94.7289 8.01758H96.4797C97.4933 8.01758 98.4148 8.57047 98.8756 9.58411L106.8 26.4473H102.009Z" fill="#221F20"/>
<path d="M15.8496 26.7239H24.8801C25.9859 26.7239 26.8153 25.8946 26.8153 24.7888V15.7582C26.8153 15.4817 26.4467 15.4817 26.3545 15.666C24.8801 20.7342 20.8256 24.6966 15.7574 26.2632C15.5731 26.3553 15.5731 26.7239 15.8496 26.7239Z" fill="#221F20"/>
<path d="M26.8153 10.9657V1.93512C26.8153 0.829339 25.9859 0 24.8801 0H15.8496C15.5731 0 15.5731 0.368595 15.7574 0.460744C20.8256 1.93512 24.788 5.98967 26.3545 11.0579C26.4467 11.2422 26.8153 11.2422 26.8153 10.9657Z" fill="#221F20"/>
<path d="M10.9657 26.7239H1.93512C0.829339 26.7239 0 25.8946 0 24.7888V15.7582C0 15.4817 0.368595 15.4817 0.460744 15.666C1.93512 20.7342 5.98967 24.6966 11.0579 26.2632C11.2422 26.3553 11.2422 26.7239 10.9657 26.7239Z" fill="#221F20"/>
<path d="M0 10.9657V1.93512C0 0.829339 0.829339 0 1.93512 0H10.9657C11.2422 0 11.2422 0.368595 11.0579 0.460744C5.98967 1.93512 2.02727 5.98967 0.460744 11.0579C0.368595 11.2422 0 11.2422 0 10.9657Z" fill="#221F20"/>
</svg>
