<svg width="0" height="0" class="hidden">
  <symbol xmlns="http://www.w3.org/2000/svg" viewBox="0 0 14 24" id="ic_arr_hor">
    <path d="M12.5211 23.0063L1.56348 12.0487L12.5211 0.994141" stroke="currentColor" stroke-width="2" stroke-miterlimit="10" fill="none"></path>
  </symbol>
  <symbol xmlns="http://www.w3.org/2000/svg" viewBox="0 0 9 14" id="ic_arr_hor2">
    <path d="M1.33362 0.99994L7.16699 6.75005L1.33362 12.5835" stroke="currentColor" stroke-width="2" stroke-miterlimit="10" fill="none"></path>
  </symbol>
  <symbol xmlns="http://www.w3.org/2000/svg" viewBox="0 0 22 12" id="ic_arr_ver">
    <path d="M21 1L11.3518 11L1 1" stroke="currentColor" stroke-miterlimit="10" fill="none"></path>
  </symbol>
  <symbol xmlns="http://www.w3.org/2000/svg" viewBox="0 0 18 14" id="ic_check">
    <path d="M1.1001 6.8L5.8001 11.6L16.3001 1.1" stroke="currentColor" stroke-width="3" stroke-miterlimit="10" fill="none"></path>
  </symbol>
  <symbol xmlns="http://www.w3.org/2000/svg" viewBox="0 0 11 12" id="ic_close">
    <path d="M1.06738 1.32397L9.93213 10.6765" stroke="currentColor" stroke-width="2" stroke-miterlimit="10" fill="none"></path>
    <path d="M9.93213 1.32397L1.06738 10.6765" stroke="currentColor" stroke-width="2" stroke-miterlimit="10" fill="none"></path>
  </symbol>
  <symbol xmlns="http://www.w3.org/2000/svg" viewBox="0 0 24 24" id="ic_close2">
    <path d="M12.0001 13.1668L22.4167 23.5835L23.5835 22.4167L13.1668 12.0001L23.5835 1.58347L22.4167 0.416748L12.0001 10.8334L1.58347 0.416748L0.416748 1.58347L10.8334 12.0001L0.416748 22.4167L1.58347 23.5835L12.0001 13.1668Z" fill="currentColor"></path>
  </symbol>
  <symbol fill="none" xmlns="http://www.w3.org/2000/svg" viewBox="0 0 25 25" id="ic_doc">
    <path d="M12.5 25C19.4036 25 25 19.4036 25 12.5C25 5.59644 19.4036 0 12.5 0C5.59644 0 0 5.59644 0 12.5C0 19.4036 5.59644 25 12.5 25Z" fill="currentColor"></path>
    <path d="M8.41602 8.4165H16.5827V16.5832" stroke="white" stroke-width="1.66667" stroke-miterlimit="10"></path>
    <path d="M16.2497 8.5L7.83301 16.8333" stroke="white" stroke-width="1.66667" stroke-miterlimit="10"></path>
  </symbol>
  <symbol xmlns="http://www.w3.org/2000/svg" viewBox="0 0 20 20" id="ic_favorite">
    <path d="M17.5499 10.1499C18.3499 9.2499 18.8499 8.1499 18.8499 6.8499C18.8499 4.2499 16.7499 2.1499 14.1499 2.1499C12.3499 2.1499 10.8499 3.1499 10.0499 4.5499C9.1499 3.1499 7.6499 2.1499 5.9499 2.1499C3.2499 2.1499 1.1499 4.2499 1.1499 6.9499C1.1499 8.1499 1.6499 9.3499 2.4499 10.1499L2.5499 10.2499C2.5499 10.2499 2.5499 10.2499 2.6499 10.3499L10.0499 17.8499L17.5499 10.1499C17.4499 10.2499 17.4499 10.2499 17.5499 10.1499Z" fill="currentColor"></path>
  </symbol>
  <symbol xmlns="http://www.w3.org/2000/svg" viewBox="0 0 20 20" id="ic_favorite2">
    <path d="M9.62931 4.8204L10.0751 5.51378L10.484 4.79809C11.2027 3.54038 12.5444 2.65002 14.1499 2.65002C16.4738 2.65002 18.3499 4.52617 18.3499 6.85002C18.3499 8.00527 17.9109 8.98702 17.1857 9.80709L17.1856 9.80719L17.1851 9.80773L17.1845 9.80827L17.184 9.80881L17.1835 9.80934L17.1829 9.80987L17.1824 9.8104L17.1819 9.81093L17.1814 9.81146L17.1808 9.81198L17.1803 9.8125L17.1798 9.81302L17.1793 9.81354L17.1788 9.81405L17.1783 9.81456L17.1777 9.81507L17.1772 9.81558L17.1767 9.81608L17.1762 9.81658L17.1757 9.81708L17.1752 9.81758L17.1747 9.81808L17.1742 9.81857L17.1738 9.81906L17.1733 9.81955L17.1728 9.82004L17.1723 9.82052L17.1718 9.821L17.1713 9.82148L17.1709 9.82196L17.1704 9.82243L17.1699 9.82291L17.1694 9.82338L17.169 9.82385L17.1685 9.82431L17.168 9.82477L17.1676 9.82524L17.1671 9.82569L17.1667 9.82615L17.1662 9.82661L17.1658 9.82706L17.1653 9.82751L17.1649 9.82795L17.1644 9.8284L17.164 9.82884L17.1635 9.82928L17.1631 9.82972L17.1627 9.83016L17.1622 9.83059L17.1618 9.83102L17.1614 9.83145L17.1609 9.83188L17.1605 9.8323L17.1601 9.83273L17.1597 9.83315L17.1593 9.83356L17.1588 9.83398L17.1584 9.83439L17.158 9.8348L17.1576 9.83521L17.1572 9.83562L17.1568 9.83602L17.1564 9.83642L17.156 9.83682L17.1556 9.83722L17.1552 9.83762L17.1548 9.83801L17.1544 9.8384L17.154 9.83879L17.1536 9.83917L17.1533 9.83955L17.1529 9.83994L17.1525 9.84031L17.1521 9.84069L17.1518 9.84107L17.1514 9.84144L17.151 9.84181L17.1506 9.84217L17.1503 9.84254L17.1499 9.8429L17.1496 9.84326L17.1492 9.84362L17.1488 9.84398L17.1485 9.84433L17.1481 9.84468L17.1478 9.84503L17.1474 9.84538L17.1471 9.84572L17.1468 9.84606L17.1464 9.8464L17.1461 9.84674L17.1457 9.84708L17.1454 9.84741L17.1451 9.84774L17.1448 9.84807L17.1444 9.8484L17.1441 9.84872L17.1438 9.84904L17.1435 9.84936L17.1431 9.84968L17.1428 9.84999L17.1425 9.8503L17.1422 9.85061L17.1419 9.85092L17.1416 9.85123L17.1413 9.85153L17.141 9.85183L17.1407 9.85213L17.1404 9.85243L17.1401 9.85272L17.1398 9.85301L17.1395 9.8533L17.1392 9.85359L17.1389 9.85387L17.1387 9.85416L17.1384 9.85444L17.1381 9.85472L17.1378 9.85499L17.1376 9.85527L17.1373 9.85554L17.137 9.85581L17.1367 9.85607L17.1365 9.85634L17.1362 9.8566L17.136 9.85686L17.1357 9.85712L17.1354 9.85737L17.1352 9.85762L17.1349 9.85787L17.1347 9.85812L17.1345 9.85837L17.1342 9.85861L17.134 9.85885L17.1337 9.85909L17.1335 9.85933L17.1333 9.85956L17.133 9.8598L17.1328 9.86003L17.1326 9.86025L17.1323 9.86048L17.1321 9.8607L17.1319 9.86092L17.1317 9.86114L17.1315 9.86136L17.1312 9.86157L17.131 9.86178L17.1308 9.86199L17.1306 9.8622L17.1304 9.86241L17.1302 9.86261L17.13 9.86281L17.1298 9.86301L17.1296 9.8632L17.1294 9.8634L17.1292 9.86359L17.129 9.86378L17.1289 9.86396L17.1287 9.86415L17.1285 9.86433L17.1283 9.86451L17.1281 9.86469L17.128 9.86486L17.1278 9.86503L17.1276 9.8652L17.1274 9.86537L17.1273 9.86554L17.1271 9.8657L17.127 9.86586L17.1268 9.86602L17.1266 9.86618L17.1265 9.86633L17.1263 9.86649L17.1262 9.86664L17.126 9.86678L17.1259 9.86693L17.1257 9.86707L17.1256 9.86721L17.1255 9.86735L17.1253 9.86749L17.1252 9.86762L17.1251 9.86775L17.1249 9.86788L17.1248 9.86801L17.1247 9.86813L17.1246 9.86826L17.1244 9.86838L17.1243 9.86849L17.1242 9.86861L17.1241 9.86872L17.124 9.86883L17.1239 9.86894L17.1238 9.86905L17.1237 9.86915L17.1236 9.86926L17.1235 9.86936L17.1234 9.86945L17.1233 9.86955L17.1232 9.86964L17.1231 9.86973L17.123 9.86982L17.1229 9.8699L17.1228 9.86999L17.1228 9.87007L17.1227 9.87015L17.1226 9.87022L17.1225 9.8703L17.1224 9.87037L17.1224 9.87044L17.1223 9.87051L17.1222 9.87057L17.1222 9.87064L17.1221 9.8707L17.1221 9.87076L17.122 9.87081L17.122 9.87087L17.1219 9.87092L17.1219 9.87097L17.1218 9.87101L17.1218 9.87106L17.1217 9.8711L17.1217 9.87114L17.1216 9.87118L17.1216 9.87121L17.1216 9.87125L17.1215 9.87128L17.1215 9.87131L17.1215 9.87133L17.1215 9.87136L17.1214 9.87138L17.1214 9.8714L17.1214 9.87142L17.1214 9.87143L17.1214 9.87144L17.1214 9.87145L17.1214 9.87146L17.1214 9.87147L17.1223 9.87242L10.0476 17.1358L3.00582 9.99885L3.00583 9.99884L3.00346 9.99647L2.91595 9.90897L2.90501 9.89802L2.90363 9.89664L2.90346 9.89647L2.90343 9.89645L2.90335 9.89637L2.90324 9.89626L2.90303 9.89604L2.90259 9.89561L2.90172 9.89474L2.80346 9.79647C2.09945 9.09246 1.6499 8.02059 1.6499 6.95002C1.6499 4.52617 3.52604 2.65002 5.9499 2.65002C7.44637 2.65002 8.80166 3.53295 9.62931 4.8204Z" stroke="currentColor" fill="none"></path>
  </symbol>
  <symbol xmlns="http://www.w3.org/2000/svg" viewBox="0 0 16 16" id="ic_filter">
    <rect x="1" y="4.5" width="14" height="1" fill="currentColor"></rect>
    <rect x="1" y="10.5" width="14" height="1" fill="currentColor"></rect>
    <circle cx="5.5" cy="5" r="2.5" fill="currentColor"></circle>
    <circle cx="10.5" cy="11" r="2.5" fill="currentColor"></circle>
  </symbol>
  <symbol xmlns="http://www.w3.org/2000/svg" viewBox="0 0 52 51" id="ic_full_screen">
    <path fill-rule="evenodd" clip-rule="evenodd" d="M49.5928 1.5L29.5464 21.5464L30.2535 22.2535L50.5 2.00701V17H51.5V1V0.5H51H50.7L50.6464 0.446411L50.5928 0.5H35V1.5H49.5928ZM1.5 49.4929V34H0.5V50V50.5H1H17V49.5H2.90707L23.2535 29.1535L22.5464 28.4464L1.5 49.4929Z" fill="currentColor"></path>
    <path fill-rule="evenodd" clip-rule="evenodd" d="M2.4072 1.5L22.4536 21.5464L21.7465 22.2535L1.5 2.00701V17H0.5V1V0.5H1H1.30003L1.35361 0.446411L1.4072 0.5H17V1.5H2.4072ZM50.5 49.4929V34H51.5V50V50.5H51H35V49.5H49.0929L28.7465 29.1535L29.4536 28.4464L50.5 49.4929Z" fill="currentColor"></path>
  </symbol>
  <symbol xmlns="http://www.w3.org/2000/svg" viewBox="0 0 17 25" id="ic_lock">
    <path d="M1.90723 9.93939V9.43939H1.40723V9.93939H1.90723ZM15.2363 9.93939H15.7363V9.43939H15.2363V9.93939ZM15.2363 21.9856V22.4856H15.7363V21.9856H15.2363ZM1.90723 21.9856H1.40723V22.4856H1.90723V21.9856ZM1.90723 10.4394H15.2363V9.43939H1.90723V10.4394ZM14.7363 9.93939V21.9856H15.7363V9.93939H14.7363ZM15.2363 21.4856H1.90723V22.4856H15.2363V21.4856ZM2.40723 21.9856V9.93939H1.40723V21.9856H2.40723ZM5.01509 10.0335V7.11607H4.01509V10.0335H5.01509ZM5.01509 7.11607C5.01509 5.91998 5.31146 4.8893 5.88441 4.16864C6.44418 3.46456 7.30787 3.00464 8.57175 3.00464V2.00464C7.03461 2.00464 5.86996 2.57994 5.10165 3.54632C4.34653 4.49612 4.01509 5.77116 4.01509 7.11607H5.01509ZM8.57175 3.00464C9.83564 3.00464 10.6993 3.46456 11.2591 4.16864C11.832 4.8893 12.1284 5.91998 12.1284 7.11607H13.1284C13.1284 5.77116 12.797 4.49612 12.0419 3.54632C11.2735 2.57994 10.1089 2.00464 8.57175 2.00464V3.00464ZM12.1284 7.11607V10.0335H13.1284V7.11607H12.1284Z" fill="currentColor"></path>
  </symbol>
  <symbol xmlns="http://www.w3.org/2000/svg" viewBox="0 0 13 18" id="ic_lock2">
    <path d="M1 7.08726V6.58726H0.5V7.08726H1ZM11.924 7.08726H12.424V6.58726H11.924V7.08726ZM11.924 16.9502V17.4502H12.424V16.9502H11.924ZM1 16.9502H0.5V17.4502H1V16.9502ZM1 7.58726H11.924V6.58726H1V7.58726ZM11.424 7.08726V16.9502H12.424V7.08726H11.424ZM11.924 16.4502H1V17.4502H11.924V16.4502ZM1.5 16.9502V7.08726H0.5V16.9502H1.5ZM3.6373 7.16432V4.77564H2.6373V7.16432H3.6373ZM3.6373 4.77564C3.6373 3.80993 3.87698 2.98827 4.33002 2.419C4.7699 1.86625 5.45062 1.5 6.46198 1.5V0.5C5.17773 0.5 4.19611 0.981343 3.54755 1.7963C2.91215 2.59474 2.6373 3.66091 2.6373 4.77564H3.6373ZM6.46198 1.5C7.47334 1.5 8.15407 1.86625 8.59395 2.419C9.04698 2.98827 9.28667 3.80993 9.28667 4.77564H10.2867C10.2867 3.66091 10.0118 2.59474 9.37641 1.7963C8.72786 0.981343 7.74624 0.5 6.46198 0.5V1.5ZM9.28667 4.77564V7.16432H10.2867V4.77564H9.28667Z" fill="currentColor"></path>
    <path d="M12.0001 7.13721H1.07617V17.0001H12.0001V7.13721Z" fill="currentColor"></path>
  </symbol>
  <symbol xmlns="http://www.w3.org/2000/svg" viewBox="0 0 14 22" id="ic_power">
    <path d="M0 12.8584L9.44856 0L8.00823 9.09132H14L3.0535 22L6.04938 12.8584H0Z" fill="currentColor"></path>
  </symbol>
  <symbol xmlns="http://www.w3.org/2000/svg" viewBox="0 0 20 19" id="ic_schema">
    <path d="M20 18.5048H0V7.52427L10 0.569336L20 7.52427V18.5048Z" fill="currentColor"></path>
  </symbol>
  <symbol xmlns="http://www.w3.org/2000/svg" viewBox="0 0 21 16" id="ic_select">
    <rect width="21" height="16" rx="1" fill="currentColor"></rect>
    <path d="M16.5836 5.00012L10.8334 10.8335L5 5.00012" stroke="white" stroke-width="2" stroke-miterlimit="10" fill="none"></path>
  </symbol>
  <symbol xmlns="http://www.w3.org/2000/svg" viewBox="0 0 43 43" id="ic_video_play">
    <path d="M41.8697 21.5087L1.22314 41.8819V1.23535L41.8697 21.5087Z" stroke="currentColor" stroke-miterlimit="10" stroke-linejoin="bevel" fill="none"></path>
  </symbol>
  <symbol xmlns="http://www.w3.org/2000/svg" viewBox="0 0 34 24" id="ic_view_grid">
    <path d="M15.5928 -0.0473633H0.592773V10.4728H15.5928V-0.0473633Z" fill="currentColor"></path>
    <path d="M33.4067 -0.0473633H18.4067V10.4728H33.4067V-0.0473633Z" fill="currentColor"></path>
    <path d="M15.5928 13.4324H0.592773V23.9525H15.5928V13.4324Z" fill="currentColor"></path>
    <path d="M33.4067 13.4324H18.4067V23.9525H33.4067V13.4324Z" fill="currentColor"></path>
  </symbol>
  <symbol xmlns="http://www.w3.org/2000/svg" viewBox="0 0 20 15" id="ic_view_list">
    <path d="M20 0.350098H0V6.3501H20V0.350098Z" fill="currentColor"></path>
    <path d="M20 8.65015H0V14.6501H20V8.65015Z" fill="currentColor"></path>
  </symbol>
  <symbol xmlns="http://www.w3.org/2000/svg" viewBox="0 0 18 20" id="ic_view_map">
    <path d="M17.4036 11.5001C18.6036 7.6001 17.0036 3.3001 13.3036 1.2001C12.0036 0.500098 10.5036 0.100098 9.00361 0.100098C4.10361 0.100098 0.203613 4.0001 0.203613 8.9001C0.203613 9.8001 0.303613 10.7001 0.603613 11.6001L9.00361 19.9001L17.4036 11.5001ZM9.10361 5.6001C10.7036 5.6001 12.1036 6.9001 12.1036 8.6001C12.1036 10.2001 10.8036 11.6001 9.10361 11.6001C7.40361 11.6001 6.10361 10.3001 6.10361 8.6001C6.10361 7.0001 7.50361 5.6001 9.10361 5.6001Z" fill="currentColor"></path>
  </symbol>
  <symbol xmlns="http://www.w3.org/2000/svg" viewBox="0 0 51 51" id="ic_zoom">
    <path fill-rule="evenodd" clip-rule="evenodd" d="M49.2437 1.10089H27.7507V0.100891H50.3507H50.8507V0.600891V23.2009H49.8507V1.90805L29.4043 22.3545L28.6972 21.6473L49.2437 1.10089ZM1.15088 49.0937V27.8009H0.150879V50.4009V50.9009H0.650879H23.2509V49.9009H1.75793L22.4044 29.2544L21.6973 28.5473L1.15088 49.0937Z" fill="currentColor" ></path>
  </symbol>
</svg>